# xmcd
#
# Track frame offsets: 
#        150
#        18900
#        37125
#        55875
#
# Disc length: 984 seconds
#
# Revision: 1
# Processed by: cddbd v1.5.2PL0 Copyright (c) Steve Scherf et al.
# Submitted via: ExactAudioCopy v1.3
#
DISCID=2d03d604
DTITLE=(K)NoW_NAME - Fairy gone フェアリーゴーン
DYEAR=2019
DGENRE=Anime
TTITLE0=STILL STANDING
TTITLE1=Stay Gold
TTITLE2=STILL STANDING（Instrumental）
TTITLE3=Stay Gold（Instrumental）
EXTD=
EXTT0=
EXTT1=
EXTT2=
EXTT3=
PLAYORDER=
